<svg xmlns="http://www.w3.org/2000/svg" xmlns:svg="http://www.w3.org/2000/svg" id="svg5" width="900" height="900" version="1.1" viewBox="0 0 238.125 238.125"><metadata id="metadata4069"/><g id="layer1" transform="translate(-117.39703,-25.039162)"><rect style="fill:#5796ff;fill-opacity:1;stroke-width:.392452" id="rect6020" width="168.01" height="68.054" x="152.4" y="57.573" rx="9.302" ry="9.537"/><text xml:space="preserve" style="font-style:normal;font-weight:400;font-size:36.77280045px;line-height:1.25;font-family:sans-serif;fill:#000;fill-opacity:1;stroke:none;stroke-width:.35817599" id="text6024" x="173.148" y="105.253"><tspan id="tspan6022" style="font-style:normal;font-variant:normal;font-weight:400;font-stretch:normal;font-size:36.77280045px;font-family:Verdana;-inkscape-font-specification:Verdana;fill:#fff;fill-opacity:1;stroke-width:.35817599" x="173.148" y="105.253">Simple</tspan></text><path style="fill:#cacdcf;fill-opacity:1;stroke-width:.07197222" id="path11067"/><path style="fill:#cacdcf;fill-opacity:1;stroke-width:.02924942" id="path11369"/><path style="fill:#cacdcf;fill-opacity:1;stroke-width:.02924942" id="path11720"/><path style="fill:#cacdcf;fill-opacity:1;stroke-width:.02924942" id="path12383"/><path style="fill:#cacdcf;fill-opacity:1;stroke-width:.0292494" id="path11954" d="m 268.24547,210.22501 c -0.55934,-1.06955 -1.37523,-2.10329 -2.22367,-2.81741 -0.56168,-0.47276 -0.99373,-0.74848 -1.92564,-1.22885 -0.34009,-0.17531 -0.60223,-0.31897 -0.58254,-0.31925 0.0655,-0.001 0.48596,0.17745 0.85881,0.36435 1.36064,0.68206 2.46406,1.65929 3.31485,2.93575 0.25939,0.38918 0.70349,1.20785 0.68462,1.26206 -0.005,0.0149 -0.0621,-0.0736 -0.12643,-0.19665 z"/><path style="fill:#cacdcf;fill-opacity:1;stroke-width:.0292494" id="path12266" d="m 207.80158,205.32808 c 0.13674,-0.0105 1.17656,-0.0181 2.3107,-0.017 1.13415,0.001 2.01602,0.006 1.95971,0.0109 -0.0563,0.005 -1.09612,0.0126 -2.3107,0.017 -1.21458,0.004 -2.09645,-5.3e-4 -1.95971,-0.0109 z"/><path style="fill:#cacdcf;fill-opacity:1;stroke-width:.0292494" id="path12422" d="m 200.60622,209.84445 c 0,-0.0487 0.4554,-0.77268 0.65195,-1.03648 0.90482,-1.21437 2.10959,-2.17767 3.46622,-2.77149 0.43409,-0.19001 0.38044,-0.13683 -0.12562,0.1245 -1.01989,0.52667 -1.67377,1.00451 -2.48733,1.81767 -0.55836,0.55808 -1.03425,1.149 -1.37288,1.70469 -0.10785,0.17699 -0.13234,0.2068 -0.13234,0.16111 z"/><path style="fill:#cacdcf;fill-opacity:1;stroke-width:.0292494" id="path12461" d="m 207.90719,205.32726 c 0.008,-0.0132 0.35299,-0.0225 0.76629,-0.0206 0.41329,0.002 0.7317,0.008 0.70757,0.013 -0.10238,0.0223 -1.48737,0.0295 -1.47386,0.008 z"/><rect style="fill:#cacdcf;fill-opacity:1;stroke-width:.26458299" id="rect3714" width="25.135" height="25.135" x="155.046" y="134.938" rx="4.63" ry="4.63"/><rect style="fill:#cacdcf;fill-opacity:1;stroke-width:.26458299" id="rect3714-5" width="25.135" height="25.135" x="189.442" y="134.938" rx="4.63" ry="4.63"/><rect style="fill:#cacdcf;fill-opacity:1;stroke-width:.26458299" id="rect3714-8" width="25.135" height="25.135" x="189.442" y="134.938" rx="4.63" ry="4.63"/><rect style="fill:#cacdcf;fill-opacity:1;stroke-width:.26458299" id="rect3714-5-0" width="25.135" height="25.135" x="223.838" y="134.938" rx="4.63" ry="4.63"/><rect style="fill:#cacdcf;fill-opacity:1;stroke-width:.26458299" id="rect3714-54" width="25.135" height="25.135" x="223.838" y="134.938" rx="4.63" ry="4.63"/><rect style="fill:#cacdcf;fill-opacity:1;stroke-width:.26458299" id="rect3714-5-8" width="25.135" height="25.135" x="258.233" y="134.938" rx="4.63" ry="4.63"/><rect style="fill:#cacdcf;fill-opacity:1;stroke-width:.26458299" id="rect3714-2" width="25.135" height="25.135" x="258.233" y="134.938" rx="4.63" ry="4.63"/><rect style="fill:#cacdcf;fill-opacity:1;stroke-width:.26458299" id="rect3714-5-81" width="25.135" height="25.135" x="292.629" y="134.938" rx="4.63" ry="4.63"/><rect style="fill:#cacdcf;fill-opacity:1;stroke-width:.26458299" id="rect3714-1" width="25.135" height="25.135" x="155.046" y="169.333" rx="4.63" ry="4.63"/><rect style="fill:#cacdcf;fill-opacity:1;stroke-width:.26458299" id="rect3714-5-1" width="25.135" height="25.135" x="189.442" y="169.333" rx="4.63" ry="4.63"/><rect style="fill:#cacdcf;fill-opacity:1;stroke-width:.26458299" id="rect3714-8-2" width="25.135" height="25.135" x="189.442" y="169.333" rx="4.63" ry="4.63"/><rect style="fill:#cacdcf;fill-opacity:1;stroke-width:.26458299" id="rect3714-5-0-0" width="25.135" height="25.135" x="223.838" y="169.333" rx="4.63" ry="4.63"/><rect style="fill:#cacdcf;fill-opacity:1;stroke-width:.26458299" id="rect3714-54-5" width="25.135" height="25.135" x="223.838" y="169.333" rx="4.63" ry="4.63"/><rect style="fill:#cacdcf;fill-opacity:1;stroke-width:.26458299" id="rect3714-5-8-6" width="25.135" height="25.135" x="258.233" y="169.333" rx="4.63" ry="4.63"/><rect style="fill:#cacdcf;fill-opacity:1;stroke-width:.26458299" id="rect3714-2-3" width="25.135" height="25.135" x="258.233" y="169.333" rx="4.63" ry="4.63"/><rect style="fill:#cacdcf;fill-opacity:1;stroke-width:.26458299" id="rect3714-5-81-6" width="25.135" height="25.135" x="292.629" y="169.333" rx="4.63" ry="4.63"/><g id="g29587" transform="translate(-1.0583333)"><rect style="fill:#cacdcf;fill-opacity:1;stroke-width:.31540301" id="rect3714-5-5" width="35.719" height="25.135" x="190.5" y="203.729" rx="6.58" ry="4.63"/><rect style="fill:#cacdcf;fill-opacity:1;stroke-width:.33246499" id="rect3714-5-8-4" width="39.687" height="25.135" x="244.74" y="203.729" rx="7.311" ry="4.63"/><rect style="fill:#cacdcf;fill-opacity:1;stroke-width:.32420799" id="rect29500" width="62.177" height="25.104" x="207.698" y="203.729"/></g></g></svg>